<svg xmlns="http://www.w3.org/2000/svg" viewBox="0 0 1506.59 288.64"><g id="Слой_2" data-name="Слой 2"><g id="Слой_1-2" data-name="Слой 1"><path d="M257.67,0V151.2h-59V58.59L150.57,151.2H106.89L59,58.59V151.2H0V0H80.85l48.09,99.12L180.39,0Z"/><path d="M372.12,85.89h31.5L429,132.51H346.29L336,151.2H273.42L360.36,0h74.13l86.94,151.2H458.85L397.32,40.32Z"/><path d="M732.06,0V44.73H600.18a12.67,12.67,0,0,0-9.56,4.1,13.43,13.43,0,0,0-3.88,9.55V94.92a13.09,13.09,0,0,0,3.88,9.45,13.57,13.57,0,0,0,9.56,4.2h84V97.65H631.89l-22-40.53H739V151.2H573.93a45.12,45.12,0,0,1-17.85-3.57,46,46,0,0,1-14.7-9.87,47.52,47.52,0,0,1-10-14.7A44.56,44.56,0,0,1,527.73,105V46.41a44.72,44.72,0,0,1,3.67-17.95A46.93,46.93,0,0,1,556.08,3.68,44,44,0,0,1,573.93,0Z"/><path d="M979.44,0V151.2H906.57L824.25,53.55V151.2h-59V0H837.9l82.53,97.65V0Z"/><path d="M1221.35,0V105a44.56,44.56,0,0,1-3.67,18.06,47.52,47.52,0,0,1-10,14.7,46.35,46.35,0,0,1-32.76,13.44H1051.88a45.16,45.16,0,0,1-17.85-3.57,46,46,0,0,1-14.7-9.87,47.49,47.49,0,0,1-10-14.7,44.56,44.56,0,0,1-3.68-18.06V0h59V90.72a13.46,13.46,0,0,0,3.89,9.56,12.64,12.64,0,0,0,9.55,4.09h70.56a13,13,0,0,0,9.66-4.09,13.28,13.28,0,0,0,4-9.56V0Z"/><path d="M1505.27,0V151.2h-59V58.59l-48.09,92.61h-43.68l-47.88-92.61V151.2h-59V0h80.85l48.09,99.12L1428,0Z"/><path d="M63.08,231a17,17,0,0,1,6.88,1.4,18,18,0,0,1,9.4,9.4,17,17,0,0,1,1.4,6.88v22.4a16.36,16.36,0,0,1-1.4,6.68,18.13,18.13,0,0,1-3.8,5.56A18.72,18.72,0,0,1,70,287.2a16.57,16.57,0,0,1-6.88,1.44H32L20.44,277.2H61.08a4.92,4.92,0,0,0,3.72-1.56A5.1,5.1,0,0,0,66.28,272V247.68A5.1,5.1,0,0,0,64.8,244a4.92,4.92,0,0,0-3.72-1.56H18.52v46.16H4V231Z"/><path d="M148.84,231v57.6H134.36V231Z"/><path d="M276.12,231v11.44H221.88a4.83,4.83,0,0,0-3.64,1.56,5.1,5.1,0,0,0-1.48,3.64V272a5,5,0,0,0,1.48,3.6,5.17,5.17,0,0,0,3.64,1.6h42.48V265.52H239.48L228,254.08h50.8v34.56H219.88a17.13,17.13,0,0,1-6.8-1.36,17.63,17.63,0,0,1-5.6-3.76,18.08,18.08,0,0,1-3.8-5.6,17,17,0,0,1-1.4-6.88V248.72a17.12,17.12,0,0,1,1.4-6.84,17.88,17.88,0,0,1,9.4-9.44,16.82,16.82,0,0,1,6.8-1.4Z"/><path d="M348,231v57.6H333.56V231Z"/><path d="M475.08,231v11.44H444.44v46.16H430V242.48H398.84V231Z"/><path d="M559.24,231l33.12,57.6H576.52l-27.44-48-15.84,27.92h24.08l6.56,11.36h-37l-5.12,8.72H505.88L539,231Z"/><path d="M656.84,231V277.2h52.72v11.44h-67.2V231Z"/><path d="M921.48,231v11.44H866.36a3.93,3.93,0,0,0-3,1.24,4.46,4.46,0,0,0-1.28,3v3.12a4.23,4.23,0,0,0,4.24,4.24h43.2q7.76,0,11.28,4.08t3.52,10.64v5a17.05,17.05,0,0,1-.88,5.36A14.28,14.28,0,0,1,920.8,284a13.12,13.12,0,0,1-4.56,3.4,15.86,15.86,0,0,1-6.68,1.28H849.08V277.2h56.64A4.23,4.23,0,0,0,910,273v-3.2a4.23,4.23,0,0,0-4.24-4.24h-43.2a17.92,17.92,0,0,1-5.76-.92A14.29,14.29,0,0,1,852,262a12.27,12.27,0,0,1-3.16-4,11.39,11.39,0,0,1-1.16-5.2v-7.68A13.76,13.76,0,0,1,852,235a14.12,14.12,0,0,1,4.72-2.92,16,16,0,0,1,5.76-1Z"/><path d="M1050.6,231v11.44H1020v46.16h-14.48V242.48H974.36V231Z"/><path d="M1177.56,231v40a17,17,0,0,1-1.4,6.88,18.25,18.25,0,0,1-3.8,5.6,17.67,17.67,0,0,1-12.48,5.12H1118.6a17.13,17.13,0,0,1-6.8-1.36,17.52,17.52,0,0,1-5.6-3.76,18.08,18.08,0,0,1-3.8-5.6A16.86,16.86,0,0,1,1101,271V231h14.48v41a5.1,5.1,0,0,0,1.48,3.64,4.81,4.81,0,0,0,3.64,1.56h37.28a5,5,0,0,0,3.68-1.56,5.06,5.06,0,0,0,1.52-3.64V231Z"/><path d="M1291,231a17,17,0,0,1,6.88,1.4,17.9,17.9,0,0,1,9.4,9.4,16.87,16.87,0,0,1,1.41,6.88v22.4a16.21,16.21,0,0,1-1.41,6.68,18.28,18.28,0,0,1-3.79,5.56,18.77,18.77,0,0,1-5.61,3.84,16.54,16.54,0,0,1-6.88,1.44h-31.12l-11.52-11.44H1289a4.93,4.93,0,0,0,3.73-1.56,5.14,5.14,0,0,0,1.47-3.64V247.68a5.14,5.14,0,0,0-1.47-3.64,4.93,4.93,0,0,0-3.73-1.56h-42.55v46.16H1232V231Z"/><path d="M1376.76,231v57.6h-14.49V231Z"/><path d="M1489,231a16.79,16.79,0,0,1,6.8,1.4,17.79,17.79,0,0,1,9.4,9.44,17,17,0,0,1,1.4,6.84V271a16.86,16.86,0,0,1-1.4,6.88,18.22,18.22,0,0,1-3.79,5.6,17.67,17.67,0,0,1-5.61,3.76,17.1,17.1,0,0,1-6.8,1.36h-41.2a17.2,17.2,0,0,1-6.8-1.36,17.47,17.47,0,0,1-5.59-3.76,18.11,18.11,0,0,1-3.81-5.6,17,17,0,0,1-1.4-6.88V248.72a17.12,17.12,0,0,1,1.4-6.84,18,18,0,0,1,9.4-9.44,16.89,16.89,0,0,1,6.8-1.4Zm3.2,16.56a4.88,4.88,0,0,0-1.52-3.6,5,5,0,0,0-3.68-1.52h-37.2a4.9,4.9,0,0,0-3.64,1.52,5,5,0,0,0-1.48,3.6V272a5,5,0,0,0,1.48,3.6,5.17,5.17,0,0,0,3.64,1.6H1487a5.28,5.28,0,0,0,3.68-1.6,4.88,4.88,0,0,0,1.52-3.6Z"/></g></g></svg>